<svg width="122" height="108" viewBox="0 0 122 108" fill="none" xmlns="http://www.w3.org/2000/svg">
<path d="M101.837 23.1504H20.163C19.0341 23.1504 18.1204 24.0656 18.1204 25.193V82.3654C18.1204 83.4928 19.0355 84.4066 20.163 84.4066H101.837C102.964 84.4066 103.878 83.4928 103.878 82.3654V25.193C103.878 24.0656 102.964 23.1504 101.837 23.1504ZM24.1301 80.3228L40.5808 57.2916L49.5863 69.8791L43.4936 80.3228H24.1301ZM48.2241 80.3228L73.2501 37.4136L98.2818 80.3228H48.2241ZM99.7944 27.2342V74.8106L75.0158 32.3387C74.3607 31.3645 73.0393 31.1058 72.065 31.7609C71.8373 31.9141 71.6405 32.1109 71.4873 32.3387L51.8398 66.03L42.2438 52.6089C41.8629 52.0662 41.2443 51.7401 40.5808 51.7373C39.9215 51.7373 39.3029 52.055 38.9191 52.592L22.2056 75.9915V27.2342H99.7944Z" fill="black"/>
<path d="M121.798 75.547L116.13 54.3911V17.0251C116.13 13.6427 113.387 10.9 110.005 10.9H104.467L102.766 4.52049C101.876 1.26607 98.5249 -0.661279 95.2649 0.208909L55.3417 10.9H11.9953C8.61296 10.9 5.87025 13.6427 5.87025 17.0251V24.1539L4.53896 24.5081C1.28172 25.398 -0.652654 28.7438 0.202071 32.0109L5.87025 53.1667V90.5328C5.87025 93.9151 8.61296 96.6579 11.9953 96.6579H17.5327L19.2338 103.036C20.1124 106.297 23.468 108.229 26.7295 107.35L26.7351 107.349L66.6583 96.6579H110.005C113.387 96.6579 116.13 93.9151 116.13 90.5314V83.404L117.461 83.0483C120.718 82.1599 122.653 78.8141 121.798 75.547ZM96.3235 4.16201C97.4073 3.87242 98.5207 4.51065 98.8188 5.5903L100.236 10.9H71.1274L96.3235 4.16201ZM4.14814 30.9607C3.86417 29.8684 4.51084 28.7508 5.59752 28.4514L5.87025 28.3797V37.388L4.14814 30.9607ZM25.6751 103.406C24.5927 103.695 23.4793 103.057 23.1798 101.977L21.76 96.6579H50.8726L25.6751 103.406ZM112.046 90.5328C112.046 91.6602 111.132 92.574 110.005 92.574H11.9953C10.8679 92.574 9.95409 91.6602 9.95409 90.5328V17.0251C9.95409 15.8976 10.8679 14.9838 11.9953 14.9838H110.005C111.132 14.9838 112.046 15.8976 112.046 17.0251V90.5328ZM116.401 79.098L116.13 79.1768V70.1684L117.852 76.5957C118.13 77.6852 117.485 78.7986 116.401 79.098Z" fill="#E6E6E6"/>
<path d="M48.7485 49.6943C53.2597 49.6943 56.9162 46.0378 56.9162 41.528C56.9162 37.0168 53.2597 33.3604 48.7485 33.3604C44.2373 33.3604 40.5808 37.0168 40.5808 41.528C40.5808 46.0378 44.2373 49.6943 48.7485 49.6943ZM48.7485 37.4442C51.0034 37.4442 52.8323 39.2717 52.8323 41.528C52.8323 43.7829 51.0034 45.6105 48.7485 45.6105C46.4936 45.6105 44.6647 43.7829 44.6647 41.528C44.6647 39.2717 46.4936 37.4442 48.7485 37.4442Z" fill="black"/>
</svg>
