<svg width="20" height="21" viewBox="0 0 20 21" fill="none" xmlns="http://www.w3.org/2000/svg">
<path d="M19.4505 17.271L19.4505 17.271L15.47 13.2904L15.0093 12.8297L15.5735 12.5039L18.4132 10.8636L18.4133 10.8636C18.4692 10.8312 18.5018 10.7698 18.4972 10.7052L18.4972 10.7052C18.4925 10.6406 18.4514 10.5844 18.3914 10.5605L18.3913 10.5605L5.72817 5.50915L5.72799 5.50908C5.66561 5.48417 5.59408 5.49875 5.54624 5.54652C5.54622 5.54654 5.5462 5.54656 5.54617 5.54658M19.4505 17.271L5.04432 5.9137C4.94526 5.66546 5.00364 5.38207 5.19268 5.19297L5.54617 5.54658M19.4505 17.271C19.5164 17.337 19.5165 17.4439 19.4505 17.5099C19.4505 17.5099 19.4505 17.5099 19.4505 17.5099L17.5082 19.4525L17.5081 19.4525C17.4765 19.4842 17.4336 19.502 17.3888 19.502C17.3441 19.502 17.3011 19.4841 17.2695 19.4525L17.2694 19.4525L13.2892 15.4718L12.8285 15.0111L12.5026 15.5753L10.8625 18.4151L10.8624 18.4152C10.8301 18.4712 10.7688 18.5037 10.7043 18.499L10.7041 18.499C10.6396 18.4943 10.5833 18.4532 10.5593 18.3931L19.4505 17.271ZM5.54617 5.54658C5.49834 5.59453 5.48382 5.66603 5.50871 5.72838L5.50875 5.72849L10.5593 18.393L5.54617 5.54658Z" stroke="white"/>
<path d="M2.93608 1.99023C2.67484 1.7292 2.25144 1.72913 1.99007 1.99023C1.7289 2.25147 1.7289 2.67501 1.99007 2.93624L3.47633 4.4225C3.60691 4.55309 3.77804 4.61841 3.9493 4.61841C4.12043 4.61841 4.29162 4.55309 4.4222 4.4225C4.68344 4.16127 4.68344 3.7378 4.4222 3.47656L2.93608 1.99023Z" fill="white"/>
<path d="M3.43977 6.61419C3.43977 6.24487 3.14028 5.94531 2.77082 5.94531H0.668948C0.299555 5.94531 0 6.2448 0 6.61419C0 6.98359 0.299488 7.28314 0.668948 7.28314H2.77082C3.14028 7.28308 3.43977 6.98359 3.43977 6.61419Z" fill="white"/>
<path d="M3.16867 8.67871L1.6822 10.1651C1.42104 10.4263 1.42104 10.8499 1.6822 11.111C1.81286 11.2416 1.98405 11.307 2.15518 11.307C2.3263 11.307 2.49756 11.2416 2.62815 11.111L4.11454 9.62472C4.37578 9.36348 4.37578 8.93995 4.11454 8.67871C3.85337 8.41768 3.43004 8.41761 3.16867 8.67871Z" fill="white"/>
<path d="M6.61395 3.4399C6.98334 3.4399 7.28289 3.14041 7.28289 2.77095V0.668881C7.28289 0.299488 6.98341 0 6.61395 0C6.24462 0 5.94507 0.299421 5.94507 0.668881V2.77102C5.94507 3.14041 6.24456 3.4399 6.61395 3.4399Z" fill="white"/>
<path d="M9.15108 4.31034C9.32234 4.31034 9.49346 4.24501 9.62405 4.11443L11.1102 2.62816C11.3715 2.36693 11.3715 1.94339 11.1102 1.68215C10.849 1.42105 10.4255 1.42105 10.1643 1.68215L8.6781 3.16848C8.41687 3.42972 8.41687 3.85326 8.6781 4.11443C8.80876 4.24501 8.97988 4.31034 9.15108 4.31034Z" fill="white"/>
</svg>
