<svg width="386" height="257" viewBox="0 0 386 257" fill="none" xmlns="http://www.w3.org/2000/svg">
<g clip-path="url(#clip0)">
<path d="M47.1612 226.385C47.1612 234.838 42.14 237.79 35.9464 237.79C35.8022 237.79 35.6587 237.789 35.5161 237.785C35.2293 237.778 34.9448 237.766 34.6642 237.746C29.0739 237.35 24.7307 234.246 24.7307 226.385C24.7307 218.25 35.1162 207.984 35.8996 207.222L35.9012 207.221C35.9308 207.192 35.9463 207.177 35.9463 207.177C35.9463 207.177 47.1612 217.931 47.1612 226.385Z" fill="#3F3D56"/>
<path d="M35.5372 236.497L39.6395 230.76L35.527 237.126L35.5161 237.785C35.2293 237.778 34.9448 237.766 34.6642 237.746L35.1061 229.288L35.103 229.223L35.1108 229.21L35.1521 228.411L31.0295 222.029L35.1646 227.812L35.1747 227.982L35.5091 221.592L31.9797 214.997L35.552 220.469L35.8996 207.222L35.9012 207.177V207.221L35.8435 217.668L39.3565 213.526L35.8287 218.567L35.7359 224.289L39.0167 218.798L35.7219 225.131L35.6704 228.312L40.4329 220.669L35.6525 229.422L35.5372 236.497Z" fill="#F2F2F2"/>
<path d="M189.651 177.504C186.654 166.618 170.017 158.595 157.035 156.524V151.295C157.275 151.205 157.513 151.113 157.751 151.018C157.683 149.973 157.473 148.942 157.127 147.954C162.672 145.698 167.461 141.907 170.932 137.026C174.585 133.2 177.338 128.604 178.99 123.576C180.642 118.549 181.15 113.215 180.478 107.965C179.807 102.715 177.971 97.6819 175.107 93.2329C172.243 88.7839 168.421 85.0315 163.922 82.25C165.156 81.4713 166.115 80.3246 166.662 78.9716C167.21 77.6185 167.32 76.1274 166.976 74.7087C166.632 73.2899 165.851 72.0151 164.745 71.064C163.638 70.1129 162.261 69.5336 160.808 69.4077C161.994 66.6037 162.206 63.4825 161.411 60.5433C160.615 57.6042 158.858 55.017 156.419 53.1959C153.981 51.3747 151.002 50.4248 147.961 50.4981C144.919 50.5714 141.99 51.6636 139.642 53.6001C141.713 52.4971 144.035 51.9495 146.38 52.0106C148.726 52.0717 151.015 52.7395 153.026 53.9489C155.038 55.1583 156.702 56.8682 157.857 58.9122C159.012 60.9561 159.618 63.2646 159.618 65.6128C159.618 65.7322 159.611 65.8499 159.608 65.9686C159.548 63.999 159.062 62.0658 158.183 60.3028C157.303 58.5397 156.052 56.9889 154.515 55.7576C152.978 54.5262 151.192 53.6438 149.281 53.1712C147.369 52.6986 145.378 52.6472 143.445 53.0206C141.512 53.394 139.683 54.1832 138.084 55.3336C136.486 56.484 135.156 57.9683 134.187 59.6836C133.218 61.3989 132.633 63.3045 132.473 65.2684C132.312 67.2323 132.579 69.2077 133.256 71.058C132.218 71.2826 131.247 71.7477 130.42 72.416C129.594 73.0843 128.936 73.9371 128.498 74.906C128.061 75.8749 127.857 76.9329 127.901 77.9952C127.946 79.0575 128.24 80.0945 128.757 81.0229C123.838 83.6098 119.594 87.3164 116.367 91.8443C113.14 96.3722 111.021 101.595 110.178 107.092C109.336 112.59 109.795 118.208 111.518 123.496C113.241 128.784 116.181 133.592 120.1 137.536C123.402 141.988 127.818 145.491 132.904 147.691V156.407C119.785 158.283 102.508 166.455 99.4889 177.609C96.8582 187.329 94.05 198.004 92.6528 204.272C104.629 212.694 129.759 217.639 145.508 217.639C160.471 217.639 184.928 213.176 196.552 205.507C195.293 198.62 192.396 187.477 189.651 177.504ZM165.66 76.9518C165.66 77.0757 165.655 77.1983 165.649 77.3205C165.561 75.7834 164.955 74.3216 163.929 73.1739C162.904 72.0261 161.52 71.2603 160.003 71.0016C160.135 70.7785 160.261 70.5515 160.38 70.3207C161.88 70.6647 163.219 71.508 164.178 72.7125C165.137 73.917 165.66 75.4116 165.66 76.9518V76.9518Z" fill="url(#paint0_linear)"/>
<path d="M145.482 215.259C160.019 215.259 183.779 210.922 195.072 203.472C193.849 196.781 191.035 185.955 188.368 176.266C184.971 163.927 163.534 155.373 150.746 155.373H138.423C125.596 155.373 104.128 163.977 100.774 176.369C98.2182 185.812 95.49 196.183 94.1326 202.272C105.768 210.454 130.182 215.259 145.482 215.259Z" fill="#919FC5"/>
<path d="M145.248 147.612C164.295 147.612 179.736 132.159 179.736 113.095C179.736 94.0323 164.295 78.5786 145.248 78.5786C126.201 78.5786 110.76 94.0323 110.76 113.095C110.76 132.159 126.201 147.612 145.248 147.612Z" fill="#46260C"/>
<path d="M135.937 137.088H153.981C154.697 137.088 155.384 137.373 155.89 137.879C156.396 138.386 156.681 139.073 156.681 139.79V158.255C156.681 159.712 156.394 161.155 155.837 162.501C155.28 163.847 154.463 165.07 153.434 166.1C152.404 167.131 151.182 167.948 149.837 168.506C148.493 169.063 147.051 169.35 145.595 169.35H144.322C142.867 169.35 141.425 169.063 140.08 168.506C138.735 167.948 137.513 167.131 136.484 166.1C135.455 165.07 134.638 163.847 134.081 162.501C133.524 161.155 133.237 159.712 133.237 158.255V139.79C133.237 139.435 133.307 139.084 133.443 138.756C133.578 138.428 133.777 138.13 134.028 137.879C134.279 137.628 134.576 137.429 134.904 137.294C135.231 137.158 135.582 137.088 135.937 137.088V137.088Z" fill="#FFCD9F"/>
<path opacity="0.05" d="M146.042 152.721C149.925 152.724 153.772 151.982 157.376 150.536C157.192 147.687 155.931 145.015 153.85 143.062C151.769 141.11 149.024 140.022 146.172 140.021H145.211C142.406 140.022 139.703 141.072 137.632 142.966C135.562 144.86 134.274 147.46 134.021 150.256C137.819 151.887 141.909 152.726 146.042 152.721V152.721Z" fill="black"/>
<path d="M145.309 149.788C162.16 149.788 175.82 136.116 175.82 119.251C175.82 102.386 162.16 88.7144 145.309 88.7144C128.458 88.7144 114.798 102.386 114.798 119.251C114.798 136.116 128.458 149.788 145.309 149.788Z" fill="#FFCD9F"/>
<path d="M134.975 85.9228C138.623 85.9228 141.579 82.9636 141.579 79.3132C141.579 75.6628 138.623 72.7036 134.975 72.7036C131.328 72.7036 128.371 75.6628 128.371 79.3132C128.371 82.9636 131.328 85.9228 134.975 85.9228Z" fill="#46260C"/>
<path d="M158.456 85.9228C162.104 85.9228 165.06 82.9636 165.06 79.3132C165.06 75.6628 162.104 72.7036 158.456 72.7036C154.809 72.7036 151.852 75.6628 151.852 79.3132C151.852 82.9636 154.809 85.9228 158.456 85.9228Z" fill="#46260C"/>
<path d="M145.982 81.5161C153.277 81.5161 159.19 75.5976 159.19 68.2968C159.19 60.9961 153.277 55.0776 145.982 55.0776C138.687 55.0776 132.774 60.9961 132.774 68.2968C132.774 75.5976 138.687 81.5161 145.982 81.5161Z" fill="#46260C"/>
<path d="M159.924 71.2349C158.611 71.2329 157.327 71.6246 156.238 72.3595C157.753 71.8177 159.414 71.8484 160.908 72.4458C162.402 73.0432 163.627 74.1662 164.352 75.6037C165.077 77.0412 165.253 78.6942 164.846 80.2521C164.438 81.81 163.477 83.1655 162.142 84.0639C163.608 83.5414 164.842 82.5175 165.627 81.1727C166.412 79.828 166.696 78.249 166.431 76.7145C166.166 75.1799 165.367 73.7886 164.177 72.786C162.986 71.7833 161.48 71.234 159.924 71.2349V71.2349Z" fill="#46260C"/>
<path d="M148.183 52.8745C145.117 52.8699 142.146 53.9372 139.783 55.8921C142.674 54.3539 146.032 53.9452 149.207 54.745C152.382 55.5449 155.147 57.4964 156.965 60.2209C158.784 62.9455 159.526 66.2489 159.049 69.4905C158.572 72.732 156.908 75.6806 154.382 77.7643C156.984 76.3803 159.05 74.1647 160.249 71.4703C161.448 68.7759 161.712 65.7575 160.999 62.8955C160.287 60.0334 158.638 57.4922 156.315 55.6763C153.993 53.8604 151.13 52.8742 148.183 52.8745V52.8745Z" fill="#46260C"/>
<path d="M123.235 91.7982C123.235 91.7982 126.904 116.033 173.132 102.814L150.385 82.9854L123.235 91.7982Z" fill="#46260C"/>
<path d="M45.6239 230.589H26.6289C23.0965 230.589 20.2329 233.455 20.2329 236.99V237.725C20.2329 241.261 23.0965 244.127 26.6289 244.127H45.6239C49.1563 244.127 52.0199 241.261 52.0199 237.725V236.99C52.0199 233.455 49.1563 230.589 45.6239 230.589Z" fill="#919FC5"/>
<g opacity="0.7">
<path opacity="0.7" d="M266.237 221.941V217.063H241.867V239.624C241.867 240.886 242.368 242.095 243.259 242.987C244.151 243.879 245.359 244.38 246.62 244.38H261.485C262.746 244.38 263.954 243.879 264.846 242.987C265.737 242.095 266.237 240.886 266.237 239.624V234.624C267.918 234.624 269.53 233.956 270.718 232.767C271.906 231.578 272.574 229.965 272.574 228.283C272.574 226.601 271.906 224.988 270.718 223.798C269.53 222.609 267.918 221.941 266.237 221.941V221.941ZM266.237 232.185V224.38C267.271 224.381 268.262 224.793 268.992 225.525C269.722 226.256 270.133 227.248 270.133 228.283C270.133 229.317 269.722 230.309 268.992 231.041C268.262 231.772 267.271 232.184 266.237 232.185V232.185Z" fill="url(#paint1_linear)"/>
</g>
<path d="M265.454 222.705C264.309 222.705 263.191 223.044 262.24 223.68C261.288 224.317 260.547 225.221 260.109 226.279C259.671 227.337 259.556 228.501 259.78 229.624C260.003 230.747 260.554 231.779 261.363 232.589C262.172 233.399 263.203 233.95 264.325 234.174C265.447 234.397 266.61 234.282 267.668 233.844C268.725 233.406 269.628 232.664 270.264 231.712C270.9 230.759 271.239 229.64 271.239 228.495C271.239 227.734 271.089 226.981 270.799 226.279C270.508 225.576 270.082 224.938 269.544 224.4C269.007 223.863 268.369 223.436 267.668 223.145C266.966 222.854 266.213 222.705 265.454 222.705ZM265.454 232.058C264.75 232.058 264.061 231.849 263.476 231.457C262.89 231.066 262.434 230.509 262.165 229.858C261.895 229.207 261.825 228.491 261.962 227.8C262.099 227.108 262.438 226.474 262.936 225.975C263.434 225.477 264.069 225.138 264.759 225C265.45 224.863 266.166 224.933 266.816 225.203C267.467 225.472 268.023 225.929 268.414 226.515C268.805 227.101 269.014 227.79 269.014 228.495C269.014 229.44 268.639 230.346 267.971 231.014C267.303 231.682 266.398 232.058 265.454 232.058Z" fill="#919FC5"/>
<path opacity="0.1" d="M265.454 222.705C264.309 222.705 263.191 223.044 262.24 223.68C261.288 224.317 260.547 225.221 260.109 226.279C259.671 227.337 259.556 228.501 259.78 229.624C260.003 230.747 260.554 231.779 261.363 232.589C262.172 233.399 263.203 233.95 264.325 234.174C265.447 234.397 266.61 234.282 267.668 233.844C268.725 233.406 269.628 232.664 270.264 231.712C270.9 230.759 271.239 229.64 271.239 228.495C271.239 227.734 271.089 226.981 270.799 226.279C270.508 225.576 270.082 224.938 269.544 224.4C269.007 223.863 268.369 223.436 267.668 223.145C266.966 222.854 266.213 222.705 265.454 222.705ZM265.454 232.058C264.75 232.058 264.061 231.849 263.476 231.457C262.89 231.066 262.434 230.509 262.165 229.858C261.895 229.207 261.825 228.491 261.962 227.8C262.099 227.108 262.438 226.474 262.936 225.975C263.434 225.477 264.069 225.138 264.759 225C265.45 224.863 266.166 224.933 266.816 225.203C267.467 225.472 268.023 225.929 268.414 226.515C268.805 227.101 269.014 227.79 269.014 228.495C269.014 229.44 268.639 230.346 267.971 231.014C267.303 231.682 266.398 232.058 265.454 232.058Z" fill="black"/>
<path d="M243.203 218.25H265.454V238.827C265.454 239.985 264.994 241.095 264.176 241.914C263.358 242.733 262.249 243.193 261.092 243.193H247.564C246.408 243.193 245.298 242.733 244.48 241.914C243.662 241.095 243.203 239.985 243.203 238.827V218.25Z" fill="#919FC5"/>
<path d="M288.817 243.193H0V252.992H288.817V243.193Z" fill="#E0E0E0"/>
<g opacity="0.7">
<path opacity="0.7" d="M199.335 172.405H89.4828C85.9003 172.405 82.9961 175.312 82.9961 178.897V236.701C82.9961 240.286 85.9003 243.193 89.4828 243.193H199.335C202.917 243.193 205.821 240.286 205.821 236.701V178.897C205.821 175.312 202.917 172.405 199.335 172.405Z" fill="url(#paint2_linear)"/>
</g>
<path d="M191.591 173.711H97.2258C90.5957 173.711 85.2209 179.091 85.2209 185.726V231.178C85.2209 237.814 90.5957 243.193 97.2258 243.193H191.591C198.221 243.193 203.596 237.814 203.596 231.178V185.726C203.596 179.091 198.221 173.711 191.591 173.711Z" fill="#535461"/>
<path d="M144.408 212.46C146.62 212.46 148.414 210.666 148.414 208.452C148.414 206.238 146.62 204.443 144.408 204.443C142.196 204.443 140.403 206.238 140.403 208.452C140.403 210.666 142.196 212.46 144.408 212.46Z" fill="white"/>
<path d="M276.579 252.991H12.238V257H276.579V252.991Z" fill="#E0E0E0"/>
<path opacity="0.1" d="M276.579 252.991H12.238V254.327H276.579V252.991Z" fill="black"/>
<path opacity="0.1" d="M261.448 218.251V238.85C261.448 240.002 260.991 241.107 260.177 241.921C259.364 242.735 258.26 243.193 257.109 243.193H259.334C260.485 243.193 261.589 242.735 262.403 241.921C263.216 241.107 263.673 240.002 263.673 238.85V218.251H261.448Z" fill="black"/>
<path d="M247.594 201.648C247.403 201.654 247.217 201.702 247.047 201.788C246.877 201.875 246.728 201.997 246.611 202.147C246.319 202.677 246.848 203.274 247.331 203.638C248.222 204.31 249.162 204.971 249.768 205.909C250.374 206.847 250.565 208.157 249.902 209.056C249.037 210.23 246.973 210.483 246.773 211.928C246.645 212.856 247.446 213.647 248.258 214.113C250.263 215.262 252.847 215.568 254.298 217.366C254.899 216.13 256.242 215.416 257.581 215.111C258.92 214.806 260.311 214.829 261.669 214.622C261.891 214.617 262.108 214.561 262.304 214.457C262.5 214.353 262.669 214.204 262.797 214.023C263.176 213.252 262.095 212.328 262.468 211.554C262.752 210.965 263.587 211.01 264.196 210.775C265.189 210.391 265.598 209.112 265.316 208.085C265.035 207.058 264.239 206.256 263.402 205.598C261.147 203.824 258.436 202.782 255.694 202.031C254.418 201.683 252.921 201.135 251.597 201.083C250.318 201.032 248.859 201.431 247.594 201.648Z" fill="#EEEEEE"/>
<path opacity="0.1" d="M386 0H191.634V133.277H386V0Z" fill="#535461"/>
<g opacity="0.5">
<path opacity="0.5" d="M253.097 13.1255H211.369C210.257 13.1255 209.356 14.0275 209.356 15.1403V53.36C209.356 54.4727 210.257 55.3748 211.369 55.3748H253.097C254.209 55.3748 255.11 54.4727 255.11 53.36V15.1403C255.11 14.0275 254.209 13.1255 253.097 13.1255Z" fill="url(#paint3_linear)"/>
</g>
<path d="M252.6 13.4531H211.928C210.816 13.4531 209.915 14.3552 209.915 15.4679V52.663C209.915 53.7758 210.816 54.6778 211.928 54.6778H252.6C253.712 54.6778 254.613 53.7758 254.613 52.663V15.4679C254.613 14.3552 253.712 13.4531 252.6 13.4531Z" fill="#F5F5F5"/>
<path d="M218.884 20.2432H215.372C214.26 20.2432 213.359 21.1452 213.359 22.258V25.0184C213.359 26.1312 214.26 27.0332 215.372 27.0332H218.884C219.996 27.0332 220.897 26.1312 220.897 25.0184V22.258C220.897 21.1452 219.996 20.2432 218.884 20.2432Z" fill="#919FC5"/>
<path d="M252.769 20.2432H223.515C223.319 20.2432 223.159 20.4029 223.159 20.5999V20.6409C223.159 20.8379 223.319 20.9976 223.515 20.9976H252.769C252.966 20.9976 253.125 20.8379 253.125 20.6409V20.5999C253.125 20.4029 252.966 20.2432 252.769 20.2432Z" fill="#E0E0E0"/>
<path d="M252.769 22.5068H223.515C223.319 22.5068 223.159 22.6666 223.159 22.8636V22.9045C223.159 23.1016 223.319 23.2613 223.515 23.2613H252.769C252.966 23.2613 253.125 23.1016 253.125 22.9045V22.8636C253.125 22.6666 252.966 22.5068 252.769 22.5068Z" fill="#E0E0E0"/>
<path d="M252.769 30.7217H212.962C212.765 30.7217 212.605 30.8814 212.605 31.0784V31.1194C212.605 31.3164 212.765 31.4761 212.962 31.4761H252.769C252.966 31.4761 253.125 31.3164 253.125 31.1194V31.0784C253.125 30.8814 252.966 30.7217 252.769 30.7217Z" fill="#E0E0E0"/>
<path d="M252.769 32.9854H212.962C212.765 32.9854 212.605 33.1451 212.605 33.3421V33.3831C212.605 33.5801 212.765 33.7398 212.962 33.7398H252.769C252.966 33.7398 253.125 33.5801 253.125 33.3831V33.3421C253.125 33.1451 252.966 32.9854 252.769 32.9854Z" fill="#E0E0E0"/>
<path d="M252.769 36.0029H212.962C212.765 36.0029 212.605 36.1626 212.605 36.3597V36.4006C212.605 36.5977 212.765 36.7574 212.962 36.7574H252.769C252.966 36.7574 253.125 36.5977 253.125 36.4006V36.3597C253.125 36.1626 252.966 36.0029 252.769 36.0029Z" fill="#E0E0E0"/>
<path d="M235.617 38.2666H212.962C212.765 38.2666 212.605 38.4263 212.605 38.6234V38.6643C212.605 38.8613 212.765 39.0211 212.962 39.0211H235.617C235.814 39.0211 235.974 38.8613 235.974 38.6643V38.6234C235.974 38.4263 235.814 38.2666 235.617 38.2666Z" fill="#E0E0E0"/>
<path d="M252.769 41.2769H212.962C212.765 41.2769 212.605 41.4366 212.605 41.6336V41.6746C212.605 41.8716 212.765 42.0313 212.962 42.0313H252.769C252.966 42.0313 253.125 41.8716 253.125 41.6746V41.6336C253.125 41.4366 252.966 41.2769 252.769 41.2769Z" fill="#E0E0E0"/>
<path d="M252.769 43.54H212.962C212.765 43.54 212.605 43.6998 212.605 43.8968V43.9377C212.605 44.1348 212.765 44.2945 212.962 44.2945H252.769C252.966 44.2945 253.125 44.1348 253.125 43.9377V43.8968C253.125 43.6998 252.966 43.54 252.769 43.54Z" fill="#E0E0E0"/>
<path d="M252.769 46.5581H212.962C212.765 46.5581 212.605 46.7178 212.605 46.9148V46.9558C212.605 47.1528 212.765 47.3126 212.962 47.3126H252.769C252.966 47.3126 253.125 47.1528 253.125 46.9558V46.9148C253.125 46.7178 252.966 46.5581 252.769 46.5581Z" fill="#E0E0E0"/>
<path d="M235.617 48.8213H212.962C212.765 48.8213 212.605 48.981 212.605 49.178V49.219C212.605 49.416 212.765 49.5757 212.962 49.5757H235.617C235.814 49.5757 235.974 49.416 235.974 49.219V49.178C235.974 48.981 235.814 48.8213 235.617 48.8213Z" fill="#E0E0E0"/>
<g opacity="0.5">
<path opacity="0.5" d="M260.002 22.8887H218.274C217.163 22.8887 216.261 23.7907 216.261 24.9035V63.1232C216.261 64.2359 217.163 65.138 218.274 65.138H260.002C261.114 65.138 262.015 64.2359 262.015 63.1232V24.9035C262.015 23.7907 261.114 22.8887 260.002 22.8887Z" fill="url(#paint4_linear)"/>
</g>
<path d="M259.505 23.2163H218.833C217.721 23.2163 216.82 24.1184 216.82 25.2311V62.4262C216.82 63.5389 217.721 64.441 218.833 64.441H259.505C260.617 64.441 261.518 63.5389 261.518 62.4262V25.2311C261.518 24.1184 260.617 23.2163 259.505 23.2163Z" fill="white"/>
<path d="M225.789 30.0063H222.278C221.166 30.0063 220.264 30.9084 220.264 32.0212V34.7816C220.264 35.8944 221.166 36.7964 222.278 36.7964H225.789C226.901 36.7964 227.803 35.8944 227.803 34.7816V32.0212C227.803 30.9084 226.901 30.0063 225.789 30.0063Z" fill="#919FC5"/>
<path d="M259.674 30.0063H230.42C230.224 30.0063 230.064 30.1661 230.064 30.3631V30.4041C230.064 30.6011 230.224 30.7608 230.42 30.7608H259.674C259.871 30.7608 260.03 30.6011 260.03 30.4041V30.3631C260.03 30.1661 259.871 30.0063 259.674 30.0063Z" fill="#E0E0E0"/>
<path d="M259.674 32.27H230.42C230.224 32.27 230.064 32.4297 230.064 32.6268V32.6677C230.064 32.8647 230.224 33.0245 230.42 33.0245H259.674C259.871 33.0245 260.03 32.8647 260.03 32.6677V32.6268C260.03 32.4297 259.871 32.27 259.674 32.27Z" fill="#E0E0E0"/>
<path d="M259.674 40.4849H219.867C219.67 40.4849 219.51 40.6446 219.51 40.8416V40.8826C219.51 41.0796 219.67 41.2393 219.867 41.2393H259.674C259.871 41.2393 260.03 41.0796 260.03 40.8826V40.8416C260.03 40.6446 259.871 40.4849 259.674 40.4849Z" fill="#E0E0E0"/>
<path d="M259.674 42.7485H219.867C219.67 42.7485 219.51 42.9083 219.51 43.1053V43.1462C219.51 43.3433 219.67 43.503 219.867 43.503H259.674C259.871 43.503 260.03 43.3433 260.03 43.1462V43.1053C260.03 42.9083 259.871 42.7485 259.674 42.7485Z" fill="#E0E0E0"/>
<path d="M259.674 45.7661H219.867C219.67 45.7661 219.51 45.9258 219.51 46.1229V46.1638C219.51 46.3608 219.67 46.5206 219.867 46.5206H259.674C259.871 46.5206 260.03 46.3608 260.03 46.1638V46.1229C260.03 45.9258 259.871 45.7661 259.674 45.7661Z" fill="#E0E0E0"/>
<path d="M242.522 48.0293H219.867C219.67 48.0293 219.51 48.189 219.51 48.386V48.427C219.51 48.624 219.67 48.7837 219.867 48.7837H242.522C242.719 48.7837 242.879 48.624 242.879 48.427V48.386C242.879 48.189 242.719 48.0293 242.522 48.0293Z" fill="#E0E0E0"/>
<path d="M259.674 51.04H219.867C219.67 51.04 219.51 51.1998 219.51 51.3968V51.4377C219.51 51.6348 219.67 51.7945 219.867 51.7945H259.674C259.871 51.7945 260.03 51.6348 260.03 51.4377V51.3968C260.03 51.1998 259.871 51.04 259.674 51.04Z" fill="#E0E0E0"/>
<path d="M259.674 53.3032H219.867C219.67 53.3032 219.51 53.4629 219.51 53.66V53.7009C219.51 53.898 219.67 54.0577 219.867 54.0577H259.674C259.871 54.0577 260.03 53.898 260.03 53.7009V53.66C260.03 53.4629 259.871 53.3032 259.674 53.3032Z" fill="#E0E0E0"/>
<path d="M259.674 56.3213H219.867C219.67 56.3213 219.51 56.481 219.51 56.678V56.719C219.51 56.916 219.67 57.0757 219.867 57.0757H259.674C259.871 57.0757 260.03 56.916 260.03 56.719V56.678C260.03 56.481 259.871 56.3213 259.674 56.3213Z" fill="#E0E0E0"/>
<path d="M242.522 58.5845H219.867C219.67 58.5845 219.51 58.7442 219.51 58.9412V58.9822C219.51 59.1792 219.67 59.3389 219.867 59.3389H242.522C242.719 59.3389 242.879 59.1792 242.879 58.9822V58.9412C242.879 58.7442 242.719 58.5845 242.522 58.5845Z" fill="#E0E0E0"/>
<path d="M306.125 29.2803H280.925V53.5124H306.125V29.2803Z" fill="url(#paint5_linear)"/>
<path d="M305.729 29.874H281.32V53.0182H305.729V29.874Z" fill="#F5F5F5"/>
<g opacity="0.6">
<path opacity="0.6" d="M298.12 43.6221H289.325V44.8089H298.12V43.6221Z" fill="#919FC5"/>
</g>
<path d="M301.035 45.7979H286.014V46.9847H301.035V45.7979Z" fill="#BDBDBD"/>
<g opacity="0.5">
<path opacity="0.5" d="M372.619 8.07715H317.667V72.6961H372.619V8.07715Z" fill="url(#paint6_linear)"/>
</g>
<path d="M371.449 9.11768H319.356V71.2663H371.449V9.11768Z" fill="white"/>
<path d="M363.785 36.3848H327.15V37.945H363.785V36.3848Z" fill="#E0E0E0"/>
<path d="M363.785 46.6558H327.15V48.216H363.785V46.6558Z" fill="#E0E0E0"/>
<path d="M363.785 49.3862H327.15V50.9464H363.785V49.3862Z" fill="#E0E0E0"/>
<path d="M342.61 43.9258H327.15V45.486H342.61V43.9258Z" fill="#E0E0E0"/>
<path opacity="0.6" d="M363.784 43.9258H352.223V45.486H363.784V43.9258Z" fill="#3AD29F"/>
<path d="M351.573 55.7573H340.011V57.3176H351.573V55.7573Z" fill="#919FC5"/>
<g opacity="0.5">
<path opacity="0.5" d="M318.256 90.8706H285.605V117.711H318.256V90.8706Z" fill="url(#paint7_linear)"/>
</g>
<path d="M317.812 91.3779H285.985V117.267H317.812V91.3779Z" fill="#F2F2F2"/>
<path d="M317.812 91.3779H285.985V97.1522H317.812V91.3779Z" fill="#919FC5"/>
<path opacity="0.1" d="M317.812 91.3779H285.985V97.1522H317.812V91.3779Z" fill="black"/>
<path d="M315.276 99.2461H288.521V102.609H315.276V99.2461Z" fill="#E0E0E0"/>
<path d="M308.049 105.147H288.521V106.29H308.049V105.147Z" fill="#E0E0E0"/>
<path d="M301.201 107.114H288.521V108.256H301.201V107.114Z" fill="#E0E0E0"/>
<path d="M305.259 109.082H288.521V110.224H305.259V109.082Z" fill="#E0E0E0"/>
<path d="M308.049 111.048H288.521V112.191H308.049V111.048Z" fill="#E0E0E0"/>
<path d="M295.052 113.016H288.521V114.158H295.052V113.016Z" fill="#E0E0E0"/>
<g opacity="0.5">
<path opacity="0.5" d="M305.63 81.0259H265.161V114.294H305.63V81.0259Z" fill="url(#paint8_linear)"/>
</g>
<path d="M305.081 81.6553H265.632V113.744H305.081V81.6553Z" fill="white"/>
<path d="M305.081 81.6553H265.632V88.8123H305.081V81.6553Z" fill="#919FC5"/>
<path d="M301.937 91.4077H268.776V95.5761H301.937V91.4077Z" fill="#F5F5F5"/>
<path d="M292.979 98.7217H268.776V100.137H292.979V98.7217Z" fill="#E0E0E0"/>
<path d="M284.492 101.16H268.776V102.575H284.492V101.16Z" fill="#E0E0E0"/>
<path d="M289.521 103.598H268.776V105.014H289.521V103.598Z" fill="#E0E0E0"/>
<path d="M292.979 106.036H268.776V107.452H292.979V106.036Z" fill="#E0E0E0"/>
<path d="M276.87 108.474H268.776V109.89H276.87V108.474Z" fill="#E0E0E0"/>
<path d="M279.934 92.8232H270.504V94.0816H279.934V92.8232Z" fill="#69F0AE"/>
<path opacity="0.1" d="M209.978 169.372C212.996 169.372 215.442 166.924 215.442 163.903C215.442 160.883 212.996 158.435 209.978 158.435C206.96 158.435 204.514 160.883 204.514 163.903C204.514 166.924 206.96 169.372 209.978 169.372Z" fill="#535461"/>
<path opacity="0.1" d="M220.125 151.794C223.143 151.794 225.589 149.345 225.589 146.325C225.589 143.305 223.143 140.856 220.125 140.856C217.107 140.856 214.661 143.305 214.661 146.325C214.661 149.345 217.107 151.794 220.125 151.794Z" fill="#535461"/>
</g>
<defs>
<linearGradient id="paint0_linear" x1="144.602" y1="217.639" x2="144.602" y2="50.4941" gradientUnits="userSpaceOnUse">
<stop stop-color="#808080" stop-opacity="0.25"/>
<stop offset="0.53514" stop-color="#808080" stop-opacity="0.12"/>
<stop offset="1" stop-color="#808080" stop-opacity="0.1"/>
</linearGradient>
<linearGradient id="paint1_linear" x1="23073.7" y1="19580.1" x2="23073.7" y2="17913.4" gradientUnits="userSpaceOnUse">
<stop stop-color="#808080" stop-opacity="0.25"/>
<stop offset="0.53514" stop-color="#808080" stop-opacity="0.12"/>
<stop offset="1" stop-color="#808080" stop-opacity="0.1"/>
</linearGradient>
<linearGradient id="paint2_linear" x1="39731.3" y1="38621.5" x2="39731.3" y2="27429.9" gradientUnits="userSpaceOnUse">
<stop stop-color="#808080" stop-opacity="0.25"/>
<stop offset="0.53514" stop-color="#808080" stop-opacity="0.12"/>
<stop offset="1" stop-color="#808080" stop-opacity="0.1"/>
</linearGradient>
<linearGradient id="paint3_linear" x1="23961.2" y1="5238.44" x2="23961.2" y2="1251.7" gradientUnits="userSpaceOnUse">
<stop stop-color="#808080" stop-opacity="0.25"/>
<stop offset="0.53514" stop-color="#808080" stop-opacity="0.12"/>
<stop offset="1" stop-color="#808080" stop-opacity="0.1"/>
</linearGradient>
<linearGradient id="paint4_linear" x1="24674.3" y1="6169.47" x2="24674.3" y2="2182.73" gradientUnits="userSpaceOnUse">
<stop stop-color="#808080" stop-opacity="0.25"/>
<stop offset="0.53514" stop-color="#808080" stop-opacity="0.12"/>
<stop offset="1" stop-color="#808080" stop-opacity="0.1"/>
</linearGradient>
<linearGradient id="paint5_linear" x1="16815.4" y1="2925.46" x2="16815.4" y2="1613.98" gradientUnits="userSpaceOnUse">
<stop stop-color="#808080" stop-opacity="0.25"/>
<stop offset="0.53514" stop-color="#808080" stop-opacity="0.12"/>
<stop offset="1" stop-color="#808080" stop-opacity="0.1"/>
</linearGradient>
<linearGradient id="paint6_linear" x1="42713.4" y1="10499.9" x2="42713.4" y2="1173.84" gradientUnits="userSpaceOnUse">
<stop stop-color="#808080" stop-opacity="0.25"/>
<stop offset="0.53514" stop-color="#808080" stop-opacity="0.12"/>
<stop offset="1" stop-color="#808080" stop-opacity="0.1"/>
</linearGradient>
<linearGradient id="paint7_linear" x1="22322.3" y1="7147.38" x2="22322.3" y2="5538.34" gradientUnits="userSpaceOnUse">
<stop stop-color="#808080" stop-opacity="0.25"/>
<stop offset="0.53514" stop-color="#808080" stop-opacity="0.12"/>
<stop offset="1" stop-color="#808080" stop-opacity="0.1"/>
</linearGradient>
<linearGradient id="paint8_linear" x1="26083.2" y1="8573.49" x2="26083.2" y2="6101.54" gradientUnits="userSpaceOnUse">
<stop stop-color="#808080" stop-opacity="0.25"/>
<stop offset="0.53514" stop-color="#808080" stop-opacity="0.12"/>
<stop offset="1" stop-color="#808080" stop-opacity="0.1"/>
</linearGradient>
<clipPath id="clip0">
<rect width="386" height="257" fill="white"/>
</clipPath>
</defs>
</svg>
