<svg width="135" height="93" viewBox="0 0 135 93" fill="none" xmlns="http://www.w3.org/2000/svg">
<g clip-path="url(#clip0)">
<path d="M130.227 84.7649L130.32 79.0174L134.188 71.9072L130.334 78.1159L130.376 75.5317L133.042 70.3873L130.387 74.8478L130.462 70.1999L133.317 66.1043L130.474 69.469L130.521 60.9463L130.226 72.2288L130.25 71.7634L127.348 67.2995L130.203 72.6568L129.933 77.8477L129.925 77.7099L126.579 73.0124L129.915 78.1966L129.881 78.8458L129.875 78.8555L129.878 78.909L129.192 92.0787H130.108L130.218 85.2763L133.546 80.1047L130.227 84.7649Z" fill="#E6E6E6"/>
<path d="M30.9852 65.6097C30.9852 77.3332 24.0489 81.4266 15.4926 81.4266C6.93626 81.4266 0 77.3332 0 65.6097C0 53.8863 15.4926 38.9722 15.4926 38.9722C15.4926 38.9722 30.9852 53.8863 30.9852 65.6097Z" fill="#E6E6E6"/>
<path d="M14.9282 79.6332L15.0869 69.8218L21.6902 57.6836L15.1118 68.2827L15.1831 63.8709L19.734 55.0891L15.202 62.7035L15.3303 54.769L20.2035 47.7776L15.3504 53.5212L15.4305 38.9722L14.9269 58.2326L14.9682 57.438L10.0135 49.8177L14.8887 58.9633L14.4272 67.8249L14.4134 67.5896L8.70142 59.5704L14.3961 68.4205L14.3383 69.5288L14.328 69.5454L14.3327 69.6364L13.1614 92.1188H14.7264L14.9141 80.5061L20.5948 71.6778L14.9282 79.6332Z" fill="#3F3D56"/>
<path d="M44.1395 39.5103V40.0997H28.0694C26.848 40.0997 25.6385 40.3414 24.5101 40.8111C23.3816 41.2807 22.3563 41.9691 21.4926 42.8369C20.6289 43.7047 19.9438 44.7349 19.4764 45.8688C19.009 47.0026 18.7684 48.2179 18.7684 49.4451V83.6546C18.7684 84.8819 19.009 86.0971 19.4764 87.231C19.9438 88.3648 20.6289 89.395 21.4926 90.2628C22.3563 91.1307 23.3816 91.819 24.5101 92.2887C25.6385 92.7583 26.848 93.0001 28.0694 93.0001H116.231C117.453 93.0001 118.662 92.7583 119.791 92.2887C120.919 91.819 121.945 91.1307 122.808 90.2628C123.672 89.395 124.357 88.3648 124.824 87.231C125.292 86.0971 125.532 84.8819 125.532 83.6546V49.4451C125.532 48.2179 125.292 47.0026 124.824 45.8688C124.357 44.7349 123.672 43.7047 122.808 42.8369C121.945 41.9691 120.919 41.2807 119.791 40.8111C118.662 40.3414 117.453 40.0997 116.231 40.0997H55.5786V39.5103H44.1395Z" fill="#3F3D56"/>
<path d="M28.1343 42.0889H116.167C118.009 42.0889 119.776 42.8242 121.078 44.1331C122.381 45.442 123.113 47.2172 123.113 49.0682V83.4418C123.113 85.2929 122.381 87.0681 121.078 88.3769C119.776 89.6858 118.009 90.4212 116.167 90.4212H28.1343C26.2921 90.4212 24.5253 89.6858 23.2226 88.3769C21.92 87.0681 21.1881 85.2929 21.1881 83.4418V79.2719C21.6892 79.4768 22.2328 79.5548 22.771 79.4991C23.3091 79.4434 23.8254 79.2557 24.2745 78.9524C24.7235 78.6492 25.0914 78.2397 25.346 77.76C25.6006 77.2803 25.7339 76.7452 25.7343 76.2016V56.6033C25.7339 56.0597 25.6006 55.5245 25.346 55.0448C25.0914 54.5652 24.7235 54.1557 24.2744 53.8524C23.8254 53.5492 23.3091 53.3615 22.771 53.3058C22.2328 53.25 21.6892 53.3281 21.1881 53.533V49.0682C21.1881 47.2172 21.92 45.442 23.2226 44.1331C24.5253 42.8242 26.2921 42.0889 28.1343 42.0889Z" fill="white"/>
<path d="M54.0446 70.1101C59.4296 70.1101 63.795 65.7239 63.795 60.3131C63.795 54.9024 59.4296 50.5161 54.0446 50.5161C48.6596 50.5161 44.2942 54.9024 44.2942 60.3131C44.2942 65.7239 48.6596 70.1101 54.0446 70.1101Z" fill="#FFC165"/>
<path d="M84.6207 90.5036H36.7881C36.7282 90.5043 36.6684 90.4996 36.6094 90.4893L59.232 51.1164C59.37 50.8712 59.5704 50.6672 59.8126 50.5253C60.0549 50.3834 60.3302 50.3086 60.6106 50.3086C60.891 50.3086 61.1664 50.3834 61.4086 50.5253C61.6508 50.6672 61.8512 50.8712 61.9892 51.1164L77.1718 77.5387L77.8992 78.803L84.6207 90.5036Z" fill="#919FC5"/>
<path opacity="0.2" d="M84.6207 90.5034H68.2896L76.3065 78.8029L76.8834 77.96L77.1719 77.5386L77.8992 78.8029L84.6207 90.5034Z" fill="black"/>
<path d="M111.254 90.5036H69.8823L77.8993 78.8031L78.4762 77.9602L88.923 62.7122C89.6079 61.7128 91.2555 61.6506 92.0607 62.5237C92.1148 62.5832 92.165 62.6462 92.2111 62.7122L111.254 90.5036Z" fill="#919FC5"/>
<path d="M73 12.7434C73 19.7813 70.6269 20 66.7609 20C62.8949 20 59 19.7813 59 12.7434C59 5.7054 62.134 0 66 0C69.866 0 73 5.7054 73 12.7434Z" fill="#46260C"/>
<path d="M63.3494 9.77862C63.3494 9.77862 64.9233 16.3921 64.351 17.111C63.7786 17.8298 69.216 19.4113 69.216 19.4113L71.5054 13.0854L70.2176 12.9416C70.2176 12.9416 68.3574 12.5103 68.9298 8.91601C69.5021 5.32172 63.3494 9.77862 63.3494 9.77862Z" fill="#FFCD9F"/>
<path d="M65.8535 11.6479C68.4218 11.6479 70.5038 9.5559 70.5038 6.97531C70.5038 4.39472 68.4218 2.30273 65.8535 2.30273C63.2852 2.30273 61.2031 4.39472 61.2031 6.97531C61.2031 9.5559 63.2852 11.6479 65.8535 11.6479Z" fill="#FFCD9F"/>
<path d="M61.2744 33.2855L57.9834 36.161C57.9834 36.161 47.9673 39.899 50.2567 45.6499C52.5461 51.4008 56.8387 59.8833 56.8387 59.8833L57.9834 62.6149H60.8452L62.7053 61.7523L62.2761 60.6021C62.2761 60.6021 61.2744 59.0206 61.2744 58.158C61.2744 57.2954 59.5574 47.3751 58.4127 46.6563C58.4127 46.6563 64.1362 41.0492 68.2857 40.7617C72.4353 40.4741 73.58 39.4677 75.8694 40.7617C78.1588 42.0556 87.1733 44.4997 87.1733 44.4997C87.1733 44.4997 92.0383 53.4136 94.4708 54.995C96.9033 56.5765 98.9065 61.8961 98.9065 61.8961L102.913 61.1772L100.91 57.0078C100.91 57.0078 98.9065 53.9886 98.9065 52.6947C98.9065 51.4007 92.3245 38.8926 87.6026 36.8798C82.8807 34.867 80.5919 33.0164 80.5919 33.0164L69.7713 30.0679L61.2744 33.2855Z" fill="#2F2E41"/>
<path d="M57.9835 60.6021C57.9835 60.6021 56.9819 59.8833 56.2664 61.321C55.551 62.7587 53.5478 66.0654 53.5478 66.0654C53.5478 66.0654 47.6812 70.5223 52.1169 71.6725C52.1169 71.6725 54.2632 71.8163 57.9835 69.2284C61.7038 66.6405 64.4225 65.3466 64.5655 64.9152C64.7086 64.4839 63.707 59.5957 62.7054 59.5957C61.7038 59.5957 61.99 61.896 60.8453 61.896C60.0273 61.9158 59.2129 62.012 58.4128 62.1836L57.9835 60.6021Z" fill="#2F2E41"/>
<path d="M104.22 61.9921C104.091 61.6245 103.891 61.2862 103.631 60.9969C103.371 60.7075 103.057 60.4729 102.706 60.3065C102.355 60.1401 101.975 60.0452 101.588 60.0275C101.2 60.0097 100.813 60.0694 100.449 60.203C100.229 60.2858 100.08 60.372 100.051 60.4583C99.9083 60.8896 98.6134 61.1027 98.4738 60.8524C98.3343 60.6021 97.3327 59.8832 98.0481 62.6149C98.7636 65.3465 100.91 71.2412 102.055 72.2476C103.199 73.254 107.206 73.1102 107.492 72.1038C107.778 71.0974 107.349 69.2284 106.776 68.5095C106.204 67.7906 105.202 65.4903 105.059 64.6277C104.992 64.2217 104.608 63.0835 104.22 61.9921Z" fill="#2F2E41"/>
<path d="M78.5535 41.697C78.5535 41.697 79.6793 46.5726 81.8895 45.427C84.0997 44.2814 79.4662 39.7183 79.4662 39.7183L78.5535 41.697Z" fill="#FFCD9F"/>
<path d="M66.248 38.9656C66.248 38.9656 67.3739 43.8412 69.5841 42.6956C71.7943 41.55 67.1608 36.9868 67.1608 36.9868L66.248 38.9656Z" fill="#FFCD9F"/>
<path d="M77.1573 30.9849C75.5017 31.4967 74.4129 31.5528 73.8906 32.0675C73.8256 32.13 73.7693 32.2011 73.7232 32.2788C73.2939 32.9977 71.4338 33.2852 69.0013 32.7101C68.1863 32.4952 67.339 32.4328 66.5015 32.5261C65.6702 32.6109 64.8331 32.7878 63.2778 32.7101C60.5634 32.5735 59.2656 23.6439 58.6503 21.2515C58.6174 21.1207 58.5859 21.01 58.5559 20.9209C57.9835 19.1956 60.9884 17.4703 61.4176 17.039C61.8469 16.6077 63.1347 14.8824 64.3194 14.7027C65.5028 14.523 67.2842 17.039 67.2842 17.039C67.2842 17.039 70.0744 13.6604 69.7883 12.7978C69.5021 11.9351 72.5069 12.5102 73.0793 12.3664C73.4027 12.2845 74.7534 12.6396 75.8681 12.9645C76.3333 13.0996 76.7465 13.3739 77.0525 13.751C77.3585 14.1281 77.5428 14.59 77.5808 15.0751C77.5994 15.3094 77.6195 15.5639 77.6395 15.8371C77.9943 20.5327 78.5781 30.5464 77.1573 30.9849Z" fill="#E6E6E6"/>
<path opacity="0.1" d="M66.5016 32.5265C65.6703 32.6113 64.8332 32.7881 63.2779 32.7105C60.5635 32.5739 59.2657 23.6443 58.6504 21.2519C58.7534 20.5072 58.8421 20.0586 58.8421 20.0586L59.6291 21.1369C59.6291 21.1369 63.4209 27.3909 64.4226 29.1162C64.8318 29.8207 65.6717 31.1506 66.5016 32.5265Z" fill="black"/>
<path d="M59.7005 19.4834L58.4127 20.0585C58.4127 20.0585 56.6957 28.6848 59.7005 32.9979C62.7053 37.3111 63.85 38.0299 64.4224 38.7488C64.5935 38.9578 64.8144 39.1201 65.0645 39.2206C65.3146 39.3211 65.5859 39.3566 65.8533 39.3239C65.8533 39.3239 65.2809 40.7616 66.2825 40.7616C67.2841 40.7616 71.0044 39.3239 70.0028 38.8926C69.0012 38.4612 67.9996 37.7424 68.2858 37.0235C68.5719 36.3047 64.9947 30.8414 63.9931 29.1161C62.9915 27.3908 59.7005 19.4834 59.7005 19.4834Z" fill="#E6E6E6"/>
<path opacity="0.1" d="M77.1573 30.985C75.5018 31.4968 74.4129 31.5529 73.8906 32.0676C73.759 30.6471 73.7647 29.3086 74.0094 28.2533C74.8888 24.4662 75.5525 16.2656 75.5118 14.2356C75.5069 13.9947 75.5582 14.3793 75.7979 14.3793V14.5231C76.8568 14.5231 77.1544 14.145 77.452 15.1658C77.5121 15.3699 77.5751 15.5942 77.6395 15.8372C77.9943 20.5328 78.5781 30.5465 77.1573 30.985Z" fill="black"/>
<path d="M75.297 13.4448H75.7355C76.2509 13.4446 76.7524 13.6122 77.165 13.9224C77.5776 14.2327 77.879 14.6689 78.0241 15.1658C78.5708 17.1038 78.9981 19.0739 79.3035 21.0647C80.162 26.3843 81.1636 39.6113 81.0205 39.8988C80.8775 40.1864 82.7376 41.6241 81.8791 41.9116C81.0205 42.1992 79.4466 42.7742 78.7311 42.918C78.0157 43.0618 76.5848 41.6241 76.5848 41.6241C76.5848 41.6241 73.58 32.5665 74.5816 28.2533C75.5832 23.9402 75.297 13.4448 75.297 13.4448Z" fill="#E6E6E6"/>
<path d="M59.1947 10.46C59.1947 10.46 59.0166 15.2751 63.7788 15.0095C68.541 14.7438 63.1353 10.8935 63.1353 10.8935L59.1947 10.46Z" fill="#46260C"/>
<path d="M135 91.9019H0.533325V92.2428H135V91.9019Z" fill="#3F3D56"/>
</g>
<defs>
<clipPath id="clip0">
<rect width="135" height="93" fill="white"/>
</clipPath>
</defs>
</svg>
