<svg width="80" height="80" viewBox="0 0 80 80" fill="none" xmlns="http://www.w3.org/2000/svg">
<path fill-rule="evenodd" clip-rule="evenodd" d="M74 40C74 58.7777 58.7777 74 40 74C21.2223 74 6 58.7777 6 40C6 21.2223 21.2223 6 40 6C58.7777 6 74 21.2223 74 40ZM80 40C80 62.0914 62.0914 80 40 80C17.9086 80 0 62.0914 0 40C0 17.9086 17.9086 0 40 0C62.0914 0 80 17.9086 80 40ZM39.922 33.4225C39.922 38.2435 35.8118 38.5487 35.8118 38.5487C41.2296 38.5487 40.8564 45.2378 40.856 45.2378C40.856 53.4595 32.2988 53.1888 32.2988 53.1888H24.4576H24.2272H18.2812V26.25H24.2272H24.4576H32.2988C36.559 26.25 39.922 28.6018 39.922 33.4225ZM31.29 31.0384H24.4576V37.0497H31.8132C33.0837 37.0497 34.2049 36.6435 34.2049 33.841C34.2049 31.0384 32.2993 31.0384 32.2993 31.0384H31.29ZM24.4576 48.4017H31.9374C33.0619 48.3704 35.139 48.0172 35.139 44.9018C35.139 41.1658 32.2988 41.202 32.2988 41.202H24.4576V48.4017ZM46.4736 27.8369H57.5885V31.1545H46.4736V27.8369ZM52.2688 33.1045C41.9093 33.1045 41.9184 43.454 41.9184 43.454C41.9184 43.454 41.2083 53.7522 52.2692 53.7522C52.2692 53.7522 61.4875 54.2791 61.4875 46.5879H56.7466C56.7466 46.5879 56.9049 49.4857 52.4275 49.4857C52.4275 49.4857 47.6871 49.8026 47.6871 44.7974H61.6452C61.6452 44.7974 63.1723 33.1045 52.2688 33.1045ZM56.4827 41.2019H47.6336C47.6336 41.2019 48.2126 37.0496 52.374 37.0496C56.5358 37.0491 56.4827 41.2019 56.4827 41.2019Z" fill="#AFD2E9"/>
</svg>
