<svg width="80" height="80" viewBox="0 0 80 80" fill="none" xmlns="http://www.w3.org/2000/svg">
<circle cx="40" cy="40" r="40" fill="#AFD2E9"/>
<path d="M26.1512 20.0439C25.828 20.1452 25.3526 20.4998 25.1624 20.7721C25.0483 20.9431 24.2877 23.2037 22.7665 27.896C21.5432 31.6764 19.9713 36.5206 19.2677 38.6609L18 42.5489L18.0254 43.1568C18.0444 43.6761 18.0697 43.8154 18.2409 44.1763C18.3613 44.4296 18.5641 44.7083 18.7479 44.8856C19.1282 45.2465 38.8154 59.5385 39.1007 59.6588C39.3796 59.7792 39.6838 59.7665 39.9437 59.6335C40.305 59.4499 59.9161 45.2085 60.2521 44.8856C60.4359 44.7083 60.6387 44.4296 60.7591 44.1763C60.9303 43.8154 60.9556 43.6761 60.9746 43.1568L61 42.5553L58.9907 36.3813C57.8878 32.9871 56.3159 28.1429 55.4919 25.6163C54.6742 23.0897 53.958 20.9558 53.9073 20.8671C53.7298 20.5758 53.4826 20.3479 53.1593 20.1832C52.8931 20.0439 52.76 20.0122 52.3354 20.0122C51.5684 20.0122 51.0296 20.3162 50.7254 20.9241C50.6303 21.1014 48.3231 28.1366 46.504 33.766L46.2758 34.4816H39.5H32.7242L32.6862 34.3359C32.3566 33.2404 28.3634 21.0887 28.2746 20.9241C28.1098 20.6011 27.7929 20.2972 27.457 20.1516C27.1337 20.0059 26.4491 19.9552 26.1512 20.0439ZM28.6042 28.5925C29.6501 31.803 30.4931 34.4436 30.4804 34.4562C30.4677 34.4689 28.75 34.4752 26.6583 34.4689L22.8616 34.4499L24.7631 28.5799C25.809 25.3567 26.671 22.7225 26.6837 22.7288C26.69 22.7415 27.552 25.3757 28.6042 28.5925ZM54.3383 28.8775L56.1511 34.4499L52.348 34.4689C50.2563 34.4752 48.5323 34.4752 48.5259 34.4626C48.5069 34.4436 51.2642 25.8886 52.2529 22.8934L52.329 22.6718L52.4241 22.9884C52.4811 23.1594 53.3432 25.8126 54.3383 28.8775ZM31.9826 38.9902C32.4136 40.3263 33.5292 43.7521 34.4609 46.608C35.3864 49.4638 36.2611 52.1424 36.3942 52.554C36.5336 52.9719 36.6223 53.2885 36.5907 53.2505C36.5653 53.2189 33.6496 49.4892 30.1191 44.9615C26.5886 40.4339 23.6729 36.6916 23.6349 36.6472C23.5905 36.5902 24.3448 36.5712 27.3809 36.5712H31.1903L31.9826 38.9902ZM45.5659 36.6472C45.5532 36.6916 44.1904 40.8835 42.5361 45.9557C40.8881 51.0342 39.519 55.1882 39.5 55.1882C39.481 55.1882 38.1182 51.0216 36.4639 45.9241C34.8096 40.8329 33.4468 36.6472 33.4341 36.6156C33.4214 36.5902 36.1533 36.5712 39.5 36.5712C44.3552 36.5712 45.5912 36.5902 45.5659 36.6472ZM55.3778 36.6409C55.3081 36.7422 42.4727 53.1872 42.3967 53.2569C42.3523 53.3012 42.346 53.3012 42.365 53.2569C42.384 53.2189 43.4615 49.9324 44.7609 45.9431C46.054 41.9537 47.2709 38.2176 47.4611 37.6287L47.8097 36.5712H51.6128C54.2939 36.5712 55.4032 36.5902 55.3778 36.6409ZM27.9894 45.6834C31.26 49.8691 33.9222 53.3075 33.9158 53.3139C33.8905 53.3329 20.4403 43.5684 20.2375 43.3848C20.1614 43.3151 20.1044 43.1885 20.1044 43.0745C20.1044 42.9732 20.4847 41.7384 20.941 40.3263L21.7841 37.7617L21.9172 37.92C21.9869 38.0023 24.7188 41.4978 27.9894 45.6834ZM58.8956 43.0682C58.8956 43.1948 58.8386 43.3088 58.7245 43.4228C58.566 43.5621 45.2997 53.1936 45.0842 53.3202C45.0398 53.3455 45.2553 53.0416 45.5659 52.649C45.8765 52.25 48.5259 48.8623 51.448 45.1199C54.37 41.3775 56.861 38.186 56.9878 38.034L57.216 37.7554L58.0526 40.3136C58.5153 41.7194 58.8956 42.9605 58.8956 43.0682Z" fill="white"/>
</svg>
