<svg width="80" height="80" viewBox="0 0 80 80" fill="none" xmlns="http://www.w3.org/2000/svg">
<path fill-rule="evenodd" clip-rule="evenodd" d="M74 40C74 58.7777 58.7777 74 40 74C21.2223 74 6 58.7777 6 40C6 21.2223 21.2223 6 40 6C58.7777 6 74 21.2223 74 40ZM80 40C80 62.0914 62.0914 80 40 80C17.9086 80 0 62.0914 0 40C0 17.9086 17.9086 0 40 0C62.0914 0 80 17.9086 80 40ZM21.8643 30.875H29.8201V54.7666H21.8643V30.875ZM55.9305 33.0569C54.2593 31.2326 52.0489 30.3203 49.3007 30.3203C48.2882 30.3203 47.3677 30.4449 46.5399 30.6941C45.7122 30.9432 45.0132 31.2928 44.4425 31.7428C43.8721 32.1929 43.4178 32.6107 43.0805 32.9963C42.7598 33.3625 42.4462 33.7891 42.1401 34.2717V30.8744H34.208L34.2323 32.0318C34.2486 32.8035 34.2566 35.1821 34.2566 39.1679C34.2566 43.154 34.2406 48.3533 34.2083 54.7663H42.1401V41.4339C42.1401 40.6144 42.228 39.9636 42.4052 39.481C42.743 38.6609 43.2528 37.9743 43.9362 37.42C44.6196 36.8651 45.4672 36.5878 46.4801 36.5878C47.8619 36.5878 48.8788 37.0659 49.5299 38.0223C50.1807 38.9785 50.5061 40.3005 50.5061 41.9882V54.7656H58.4379V41.0727C58.4373 37.5524 57.6022 34.8806 55.9305 33.0569ZM22.6478 20.5444C23.4758 19.765 24.5566 19.375 25.8904 19.375C27.2244 19.375 28.2936 19.7647 29.0969 20.5444C29.9003 21.3239 30.3104 22.308 30.3264 23.4976C30.3424 24.6709 29.9367 25.6513 29.109 26.4386C28.2814 27.2264 27.1924 27.62 25.8421 27.62H25.7939C24.476 27.62 23.4151 27.2261 22.6117 26.4386C21.808 25.6513 21.4062 24.6706 21.4062 23.4976C21.4062 22.308 21.8199 21.3239 22.6478 20.5444Z" fill="#AFD2E9"/>
</svg>
