<svg width="87" height="75" viewBox="0 0 87 75" fill="none" xmlns="http://www.w3.org/2000/svg">
<path d="M68.7029 56.7335C65.2677 61.392 61.5092 65.0553 57.0755 67.556C52.6458 70.0545 47.5161 71.407 41.3144 71.407C30.9389 71.407 23.8543 67.393 20.5641 61.098C17.2648 54.7856 17.6994 46.0279 22.7043 36.3849C24.1651 33.5704 23.6347 30.4083 22.2797 27.2434C20.9499 24.1371 18.7769 20.916 16.706 17.8463C16.6658 17.7867 16.6256 17.7271 16.5854 17.6676C14.4596 14.5159 12.4719 11.5439 11.5103 8.93339C11.0318 7.63427 10.8246 6.4674 10.9569 5.44129C11.087 4.43212 11.5494 3.52399 12.4829 2.72865C14.0182 1.42069 16.4471 0.74738 19.4618 0.557352C22.4615 0.368266 25.9607 0.662081 29.5575 1.21183C36.218 2.22985 43.1374 4.11277 47.7137 5.35806C48.0796 5.45764 48.4306 5.55315 48.7653 5.6438C51.7657 6.45663 54.2635 7.08208 56.347 7.60378C57.5376 7.90191 58.5929 8.16616 59.5294 8.41214C62.1313 9.09556 63.8326 9.64239 65.1346 10.3946C66.4138 11.1336 67.3325 12.0863 68.3239 13.6382C69.2327 15.0607 70.1844 16.956 71.5226 19.6213C71.6626 19.9002 71.8068 20.1875 71.9557 20.4836C72.6273 21.8192 73.889 23.5512 75.3691 25.4623C76.0054 26.284 76.6801 27.1363 77.3727 28.0113C78.3128 29.1988 79.286 30.4282 80.2417 31.68C81.8931 33.8433 83.4508 36.0212 84.5941 38.0331C85.7468 40.0613 86.436 41.8496 86.436 43.2503C86.436 45.2114 85.6828 46.6054 84.4683 47.7152C83.231 48.8458 81.5113 49.6839 79.5785 50.4804C78.9879 50.7239 78.3753 50.964 77.7543 51.2076C76.3751 51.7483 74.954 52.3056 73.6381 52.951C71.7178 53.8929 69.9378 55.059 68.7029 56.7335Z" stroke="#919FC5"/>
<path d="M46.3438 62.8087C43.6133 66.5098 40.6297 69.4151 37.1142 71.397C33.6026 73.3768 29.5342 74.45 24.61 74.45C16.3717 74.45 10.7703 71.2659 8.17197 66.2968C5.56458 61.3105 5.89975 54.3747 9.87684 46.7153C11.0614 44.434 10.6256 41.8801 9.54191 39.3499C8.4788 36.8678 6.7433 34.2964 5.09597 31.8556C5.06297 31.8067 5.02999 31.7578 4.99706 31.709C3.30145 29.1963 1.72648 26.8413 0.965737 24.7769C0.587624 23.7509 0.427913 22.8394 0.530373 22.045C0.630646 21.2675 0.985934 20.5672 1.71091 19.9498C2.90858 18.93 4.81618 18.396 7.21022 18.2452C9.58928 18.0953 12.3685 18.3281 15.23 18.7653C20.5292 19.5749 26.0353 21.0725 29.681 22.0641C29.9723 22.1434 30.2517 22.2194 30.5182 22.2915C32.9083 22.9387 34.9011 23.4375 36.5618 23.8532C37.5097 24.0904 38.3493 24.3006 39.0929 24.4958C41.1657 25.04 42.5086 25.4726 43.5326 26.0639C44.5336 26.6419 45.2545 27.387 46.038 28.613C46.7589 29.7409 47.5144 31.2448 48.5815 33.3691C48.6927 33.5906 48.8073 33.8188 48.9257 34.054C49.4657 35.1276 50.4768 36.5139 51.655 38.0346C52.1635 38.691 52.7012 39.3699 53.2529 40.0664C54.0007 41.0107 54.7743 41.9874 55.5357 42.9843C56.8504 44.7057 58.0877 46.4353 58.9949 48.031C59.9115 49.643 60.4487 51.0472 60.4487 52.1343C60.4487 53.6641 59.8631 54.7476 58.9146 55.6138C57.9432 56.501 56.5881 57.1627 55.0496 57.7965C54.5826 57.9889 54.0966 58.1793 53.603 58.3728C52.5025 58.8042 51.3638 59.2505 50.3119 59.7662C48.7762 60.5191 47.3415 61.4564 46.3438 62.8087Z" stroke="#919FC5"/>
<path d="M28.2995 63H31.4355L32.1555 61.432H37.0675L37.8035 63H40.9555L35.3075 51H33.8995L28.2995 63ZM33.3875 58.776L34.6195 56.136L35.8355 58.776H33.3875Z" fill="#919FC5"/>
<path d="M67.3117 48H70.4637V43.424H74.2717V48H77.4237V36H74.2717V40.272H70.4637V36H67.3117V48Z" fill="#919FC5"/>
</svg>
