<svg width="49" height="49" viewBox="0 0 49 49" fill="none" xmlns="http://www.w3.org/2000/svg">
<path d="M46.8892 13.1213L48.5382 11.4245L48.539 11.4237C48.8355 11.1184 49.0011 10.7091 48.9999 10.2839L48.9859 2.48722C48.9939 1.83224 48.7364 1.20195 48.2728 0.738725C47.8085 0.281573 47.1839 0.023001 46.5315 0.018065L38.5253 0.0112305C38.5075 0.0275573 38.4577 0.0131289 38.4232 0.0173056C38.0184 0.0810943 37.6463 0.277776 37.3657 0.576595L19.9822 17.9609C14.1565 16.3552 7.92535 18.2161 3.934 22.753C-0.0573442 27.2904 -1.10834 33.708 1.2264 39.2811C3.56152 44.8546 8.87345 48.6064 14.9068 48.9436C15.2007 48.9599 15.4938 48.9679 15.7869 48.9679C20.7146 48.9705 25.3605 46.6719 28.3484 42.7534C31.3362 38.835 32.323 33.7459 31.0161 28.9948L32.4358 27.5744C32.7122 27.2987 32.8515 26.9137 32.8151 26.5249L32.4529 22.5609L36.0524 22.8897C36.4412 22.9258 36.8262 22.7868 37.1022 22.5108C37.3786 22.2347 37.5176 21.8501 37.4823 21.4613L37.1539 17.8607L40.7545 18.1902C41.1433 18.2255 41.5272 18.0866 41.8032 17.8109C42.0792 17.5349 42.2186 17.151 42.1837 16.7626L41.859 13.1517L45.8401 13.5097C46.2304 13.5439 46.6155 13.4015 46.8892 13.1213ZM41.6274 11.4928C41.239 11.4579 40.8555 11.5972 40.5798 11.8729C40.3042 12.1485 40.1648 12.5324 40.1998 12.9205L40.5244 16.531L36.9226 16.2014C36.5338 16.1661 36.1496 16.3054 35.8735 16.5815C35.5975 16.8571 35.4585 17.2418 35.4938 17.6306L35.823 21.2308L32.2228 20.9013C31.834 20.8659 31.4493 21.0049 31.1733 21.2813C30.8972 21.5574 30.7583 21.942 30.794 22.3308L31.1771 26.5257L29.5212 28.1819C29.3071 28.3953 29.2292 28.7097 29.3185 28.9986C31.1216 34.8368 28.9749 41.1731 23.994 44.7126C19.0136 48.2525 12.3237 48.1967 7.40289 44.5741C2.48205 40.9514 0.441574 34.5801 2.34232 28.7731C4.2427 22.9657 9.65524 19.0335 15.7657 19.021C17.1937 19.0225 18.6134 19.2374 19.9776 19.6585C20.2666 19.7474 20.5806 19.6695 20.7943 19.4558L38.5185 1.73125C38.5507 1.69935 38.5853 1.67011 38.6214 1.64278L46.5346 1.64999H46.538C46.7575 1.64999 46.9674 1.73808 47.1208 1.89451C47.2742 2.05133 47.3581 2.26282 47.354 2.48228L47.3684 10.2854L47.3676 10.2877L45.8295 11.8706L41.6274 11.4928Z" fill="black"/>
<path d="M35.6818 7.90599L22.9787 20.609C22.7668 20.8137 22.6818 21.1171 22.7562 21.4022C22.831 21.6878 23.0539 21.9103 23.339 21.9851C23.6242 22.0599 23.9276 21.9748 24.1326 21.7626L36.8353 9.05988C37.0468 8.85485 37.1311 8.55185 37.0566 8.26708C36.9818 7.98231 36.7593 7.75981 36.4746 7.68501C36.1898 7.61021 35.8868 7.6945 35.6818 7.90599Z" fill="black"/>
<path d="M37.8166 5.95043C37.6643 6.09434 37.5778 6.29444 37.5778 6.50403C37.5778 6.71324 37.6643 6.91372 37.8166 7.05724C38.1405 7.3629 38.6466 7.3629 38.9705 7.05724C39.1231 6.91372 39.2097 6.71324 39.2097 6.50403C39.2097 6.29444 39.1231 6.09434 38.9705 5.95043C38.6466 5.64478 38.1405 5.64478 37.8166 5.95043Z" fill="black"/>
<path d="M15.8526 37.8436C15.4524 38.3929 15.0311 38.802 14.5517 39.0757C14.0766 39.347 13.5186 39.5 12.8204 39.5C11.6534 39.5 10.956 39.0508 10.6441 38.4467C10.3223 37.8236 10.33 36.8831 10.9093 35.7533C11.178 35.2292 11.0566 34.68 10.8704 34.2397C10.6896 33.8122 10.4009 33.3792 10.1527 33.0069C10.1442 32.9942 10.1358 32.9816 10.1275 32.969C9.85504 32.5602 9.64408 32.2357 9.54694 31.9688C9.50059 31.8414 9.4971 31.7696 9.50135 31.7362C9.50348 31.7194 9.50626 31.7032 9.5418 31.6725C9.62279 31.6027 9.80568 31.528 10.1463 31.5063C10.4722 31.4855 10.8696 31.5174 11.2995 31.5839C12.0967 31.7073 12.9291 31.9364 13.4974 32.0929C13.5418 32.1051 13.5846 32.1169 13.6256 32.1282C13.9975 32.2302 14.321 32.3122 14.5833 32.3787C14.7282 32.4155 14.8545 32.4475 14.9599 32.4756C15.2832 32.5615 15.4404 32.6176 15.5443 32.6784C15.6256 32.726 15.6927 32.7869 15.7894 32.9402C15.8891 33.0981 15.9962 33.3139 16.1674 33.6589C16.1833 33.6908 16.1997 33.7239 16.2167 33.7581C16.3213 33.9686 16.5032 34.2173 16.6831 34.4524C16.7692 34.565 16.8539 34.6733 16.9393 34.7823C17.0515 34.9257 17.1648 35.0705 17.2837 35.2282C17.4848 35.4948 17.6631 35.7486 17.7897 35.9741C17.9254 36.2158 17.9615 36.3564 17.9615 36.4133C17.9615 36.5258 17.9278 36.5873 17.8586 36.6512C17.7668 36.7361 17.6175 36.8167 17.3828 36.9146C17.3242 36.9391 17.2572 36.9657 17.1856 36.9941C17.008 37.0647 16.8018 37.1466 16.6221 37.2358C16.3578 37.367 16.0654 37.5515 15.8526 37.8436Z" fill="#AFD2E9" stroke="#AFD2E9"/>
</svg>
