<svg width="427" height="367" viewBox="0 0 427 367" fill="none" xmlns="http://www.w3.org/2000/svg">
<path fill-rule="evenodd" clip-rule="evenodd" d="M202.451 352.101C263.986 352.101 304.685 325.255 338.632 279.255C361.478 248.297 426.006 253.216 426.006 211.78C426.006 181.658 367.462 124.386 354.788 99.2002C324.122 38.2596 332.148 50.3252 239.602 25.2724C195.391 13.3042 92.1069 -16.191 59.582 11.4975C19.3964 45.7075 135.696 125.796 109.083 177.035C59.582 272.34 99.5032 352.101 202.451 352.101Z" fill="#919FC5"/>
<path d="M227.859 308.111C214.425 326.307 199.71 340.639 182.334 350.428C164.97 360.21 144.87 365.5 120.594 365.5C79.9795 365.5 52.1431 349.798 39.2021 325.068C26.2341 300.286 27.9791 265.982 47.5551 228.309C53.1643 217.514 51.1526 205.346 45.8837 193.053C40.7102 180.983 32.2492 168.456 24.1564 156.473C24.0037 156.247 23.8512 156.021 23.6988 155.796C15.4111 143.523 7.61661 131.888 3.84069 121.649C1.95951 116.548 1.12759 111.922 1.65662 107.823C2.17907 103.775 4.04099 100.135 7.76741 96.9638C13.872 91.7693 23.4725 89.1348 35.2717 88.392C47.0259 87.6519 60.7199 88.8023 74.7736 90.9478C100.797 94.9207 127.829 102.268 145.688 107.122C147.117 107.511 148.487 107.883 149.794 108.237C161.504 111.405 171.239 113.84 179.366 115.872C184.015 117.035 188.138 118.066 191.804 119.028C201.958 121.692 208.653 123.836 213.794 126.803C218.865 129.729 222.499 133.503 226.396 139.595C229.957 145.162 233.682 152.573 238.901 162.954C239.448 164.044 240.012 165.166 240.594 166.322C243.193 171.485 248.091 178.204 253.871 185.659C256.347 188.852 258.979 192.173 261.682 195.585C265.356 200.219 269.162 205.022 272.891 209.901C279.34 218.339 285.435 226.849 289.913 234.72C294.419 242.639 297.161 249.697 297.161 255.28C297.161 263.064 294.158 268.615 289.334 273.018C284.441 277.484 277.664 280.775 270.116 283.883C267.795 284.838 265.395 285.778 262.966 286.729C257.592 288.834 252.076 290.994 246.957 293.502C239.489 297.161 232.616 301.668 227.859 308.111Z" stroke="#919FC5" stroke-width="3"/>
</svg>
