<svg width="30" height="30" viewBox="0 0 30 30" fill="none" xmlns="http://www.w3.org/2000/svg">
<g clip-path="url(#clip0)">
<path d="M29.7722 14.6507L24.2369 9.92379C24.2434 9.89146 24.2499 9.85913 24.2563 9.82033V3.63845C24.2499 3.26987 23.9589 2.97242 23.5903 2.95948H20.4994C20.1437 2.95948 19.8527 3.27634 19.8527 3.63845V6.19915L15.4233 2.42277C15.184 2.21585 14.8283 2.21585 14.5826 2.42277L0.233689 14.6443C-0.0443657 14.8706 -0.0766976 15.278 0.149626 15.556C0.37595 15.8341 0.783333 15.8664 1.06139 15.6401C1.06785 15.6336 1.06785 15.6336 1.07432 15.6272L15.0029 3.76778L19.9885 8.01621L22.9695 10.551L28.938 15.6336C29.2096 15.8664 29.617 15.8341 29.8498 15.5625C30.0761 15.2909 30.0438 14.8835 29.7722 14.6507Z" fill="#AFD2E9"/>
<path d="M15.0029 7.47949L6.01465 15.1357V27.7322H11.1231V20.1213C11.1231 19.7656 11.3882 19.4553 11.7439 19.4553H18.262C18.6177 19.4553 18.8828 19.7656 18.8828 20.1213V27.7322H23.9912V15.1357L15.0029 7.47949Z" fill="#AFD2E9"/>
<path d="M17.5894 20.7485H12.4163V27.7322H17.5894V20.7485Z" fill="#AFD2E9"/>
</g>
<defs>
<clipPath id="clip0">
<rect width="30" height="30" fill="white"/>
</clipPath>
</defs>
</svg>
