<svg width="60" height="60" viewBox="0 0 60 60" fill="none" xmlns="http://www.w3.org/2000/svg">
<circle cx="30" cy="30" r="30" fill="#919FC5"/>
<g clip-path="url(#clip0)">
<path d="M32.8281 27.8125C33.5357 27.8125 34.1093 27.2388 34.1093 26.5312C34.1093 25.8236 33.5357 25.25 32.8281 25.25C32.1205 25.25 31.5469 25.8236 31.5469 26.5312C31.5469 27.2388 32.1205 27.8125 32.8281 27.8125Z" fill="white"/>
<path d="M26.4219 27.8125C27.1295 27.8125 27.7031 27.2388 27.7031 26.5312C27.7031 25.8236 27.1295 25.25 26.4219 25.25C25.7143 25.25 25.1406 25.8236 25.1406 26.5312C25.1406 27.2388 25.7143 27.8125 26.4219 27.8125Z" fill="white"/>
<path d="M20.0156 27.8125C20.7232 27.8125 21.2968 27.2388 21.2968 26.5312C21.2968 25.8236 20.7232 25.25 20.0156 25.25C19.308 25.25 18.7344 25.8236 18.7344 26.5312C18.7344 27.2388 19.308 27.8125 20.0156 27.8125Z" fill="white"/>
<path d="M37.9531 22.6875V34.2187C37.951 34.9254 37.3786 35.4979 36.6719 35.5H28.3438L25.7812 38.0625V35.5H16.1719C15.4651 35.4979 14.8927 34.9254 14.8906 34.2187V18.8437C14.8927 18.137 15.4651 17.5646 16.1719 17.5625H36.6718C37.3785 17.5646 37.951 18.137 37.9531 18.8437V22.6875H37.9531ZM34.1094 26.5312C34.1094 25.8236 33.5358 25.25 32.8281 25.25C32.1205 25.25 31.5469 25.8236 31.5469 26.5312C31.5469 27.2388 32.1205 27.8125 32.8281 27.8125C33.5349 27.8104 34.1073 27.2379 34.1094 26.5312ZM27.7031 26.5312C27.7031 25.8236 27.1295 25.25 26.4219 25.25C25.7143 25.25 25.1406 25.8236 25.1406 26.5312C25.1406 27.2388 25.7143 27.8125 26.4219 27.8125C27.1286 27.8104 27.701 27.2379 27.7031 26.5312ZM21.2968 26.5312C21.2968 25.8236 20.7232 25.25 20.0156 25.25C19.308 25.25 18.7344 25.8236 18.7344 26.5312C18.7344 27.2388 19.308 27.8125 20.0156 27.8125C20.7223 27.8104 21.2947 27.2379 21.2968 26.5312Z" fill="white"/>
<path d="M31.5469 43.8281C31.1931 43.8281 30.9062 43.5413 30.9062 43.1875V41.2656H22.5781C21.5167 41.2656 20.6562 40.4052 20.6562 39.3438V37.4219H21.9375V39.3438C21.9375 39.6976 22.2243 39.9844 22.5781 39.9844H31.5469C31.9007 39.9844 32.1875 40.2712 32.1875 40.625V41.6411L33.6565 40.1721C33.7766 40.0519 33.9395 39.9844 34.1094 39.9844H43.0781C43.4319 39.9844 43.7188 39.6976 43.7188 39.3438V23.9687C43.7188 23.6149 43.4319 23.3281 43.0781 23.3281H39.875V22.0469H43.0781C44.1395 22.0469 45 22.9073 45 23.9687V39.3438C45 40.4052 44.1395 41.2656 43.0781 41.2656H34.3746L31.9998 43.6404C31.8796 43.7606 31.7168 43.8281 31.5469 43.8281Z" fill="#4C5B66"/>
<path d="M25.7812 38.7031C25.4274 38.7031 25.1406 38.4163 25.1406 38.0625V36.1406H16.1719C15.1105 36.1406 14.25 35.2802 14.25 34.2188V18.8438C14.25 17.7823 15.1105 16.9219 16.1719 16.9219H36.6719C37.7333 16.9219 38.5937 17.7823 38.5937 18.8438V34.2188C38.5937 35.2802 37.7333 36.1406 36.6719 36.1406H28.609L26.2342 38.5154C26.114 38.6356 25.9512 38.7031 25.7812 38.7031ZM16.1719 18.2031C15.8181 18.2031 15.5312 18.4899 15.5312 18.8438V34.2188C15.5312 34.5726 15.8181 34.8594 16.1719 34.8594H25.7812C26.1351 34.8594 26.4219 35.1462 26.4219 35.5V36.5161L27.8909 35.0471C28.011 34.9269 28.1739 34.8594 28.3438 34.8594H36.6719C37.0257 34.8594 37.3126 34.5726 37.3126 34.2188V18.8438C37.3126 18.4899 37.0257 18.2031 36.6719 18.2031H16.1719Z" fill="#4C5B66"/>
<path d="M26.4219 28.4531C25.3605 28.4531 24.5 27.5927 24.5 26.5312C24.5 25.4698 25.3605 24.6094 26.4219 24.6094C27.4833 24.6094 28.3438 25.4698 28.3438 26.5312C28.3438 27.5927 27.4833 28.4531 26.4219 28.4531ZM26.4219 25.8906C26.0681 25.8906 25.7812 26.1774 25.7812 26.5312C25.7812 26.8851 26.0681 27.1719 26.4219 27.1719C26.7757 27.1719 27.0625 26.8851 27.0625 26.5312C27.0625 26.1774 26.7757 25.8906 26.4219 25.8906Z" fill="#4C5B66"/>
<path d="M32.8281 28.4531C31.7667 28.4531 30.9062 27.5927 30.9062 26.5312C30.9062 25.4698 31.7667 24.6094 32.8281 24.6094C33.8895 24.6094 34.75 25.4698 34.75 26.5312C34.75 27.5927 33.8895 28.4531 32.8281 28.4531ZM32.8281 25.8906C32.4743 25.8906 32.1875 26.1774 32.1875 26.5312C32.1875 26.8851 32.4743 27.1719 32.8281 27.1719C33.1819 27.1719 33.4688 26.8851 33.4688 26.5312C33.4688 26.1774 33.1819 25.8906 32.8281 25.8906Z" fill="#4C5B66"/>
<path d="M20.0156 28.4531C18.9542 28.4531 18.0938 27.5927 18.0938 26.5312C18.0938 25.4698 18.9542 24.6094 20.0156 24.6094C21.077 24.6094 21.9375 25.4698 21.9375 26.5312C21.9375 27.5927 21.077 28.4531 20.0156 28.4531ZM20.0156 25.8906C19.6618 25.8906 19.375 26.1774 19.375 26.5312C19.375 26.8851 19.6618 27.1719 20.0156 27.1719C20.3694 27.1719 20.6563 26.8851 20.6563 26.5312C20.6563 26.1774 20.3694 25.8906 20.0156 25.8906Z" fill="#4C5B66"/>
</g>
<defs>
<clipPath id="clip0">
<rect x="14.25" y="15" width="30.75" height="30.75" fill="white"/>
</clipPath>
</defs>
</svg>
